<?xml version="1.0" standalone="no"?>
<!DOCTYPE svg PUBLIC "-//W3C//DTD SVG 20010904//EN"
 "http://www.w3.org/TR/2001/REC-SVG-20010904/DTD/svg10.dtd">
<svg version="1.0" xmlns="http://www.w3.org/2000/svg"
 width="986.000000pt" height="1280.000000pt" viewBox="0 0 986.000000 1280.000000"
 preserveAspectRatio="xMidYMid meet">
<g transform="translate(0.000000,1280.000000) scale(0.100000,-0.100000)"
fill="#000000" stroke="none">
<path d="M4969 12321 c-103 -33 -117 -102 -88 -406 21 -217 6 -305 -126 -750
-104 -353 -118 -410 -119 -496 -1 -97 9 -110 118 -146 75 -25 94 -27 251 -27
138 0 189 5 269 22 373 83 700 273 796 464 50 101 40 184 -40 353 -175 372
-572 811 -855 946 -83 40 -160 55 -206 40z"/>
<path d="M2223 11549 c-122 -25 -209 -205 -259 -531 -24 -154 -24 -498 -1
-658 34 -233 100 -408 176 -471 51 -42 119 -60 246 -66 88 -4 130 -1 214 16
305 64 571 253 571 408 0 96 -109 404 -220 623 -219 428 -531 720 -727 679z"/>
<path d="M5680 10163 c-471 -48 -859 -230 -969 -454 -52 -107 -64 -218 -58
-524 9 -456 91 -944 238 -1425 116 -378 246 -642 396 -801 124 -131 234 -162
578 -162 171 -1 215 2 305 22 195 42 361 132 453 246 129 160 237 454 287 782
121 789 -73 1632 -473 2059 -68 73 -196 173 -268 209 -87 44 -311 66 -489 48z"/>
<path d="M7896 10078 c-8 -24 -51 -140 -95 -258 -140 -379 -169 -496 -177
-715 -5 -119 -3 -155 16 -245 26 -129 70 -236 113 -278 77 -75 222 -113 427
-114 217 0 332 32 375 106 36 63 47 120 47 241 -1 260 -68 534 -184 745 -106
193 -307 441 -430 530 -56 41 -73 39 -92 -12z"/>
<path d="M2695 9539 c-89 -10 -236 -49 -294 -78 -139 -71 -172 -171 -146 -442
l15 -161 -30 -127 c-99 -423 -113 -772 -45 -1110 50 -244 159 -512 266 -656
70 -93 294 -316 395 -392 420 -318 856 -458 1244 -398 298 45 425 153 491 416
27 107 37 368 20 531 -31 302 -119 672 -233 978 -79 212 -262 570 -395 775
-172 263 -307 387 -558 513 -245 122 -505 176 -730 151z"/>
<path d="M1180 8852 c-25 -16 -86 -71 -135 -123 -140 -144 -250 -311 -308
-463 -30 -77 -32 -88 -30 -211 2 -226 50 -557 103 -716 67 -197 125 -235 355
-233 250 3 456 82 501 191 28 66 12 230 -51 510 -110 490 -307 1062 -370 1071
-11 1 -40 -10 -65 -26z"/>
<path d="M8285 7989 c-185 -25 -418 -91 -548 -154 -162 -79 -326 -266 -499
-570 -324 -570 -559 -1387 -499 -1740 29 -171 127 -270 331 -333 299 -92 854
-72 1325 48 238 60 372 118 491 211 230 181 374 438 431 769 25 142 22 446 -5
617 -50 313 -157 641 -287 878 -124 226 -216 276 -515 281 -85 1 -186 -2 -225
-7z"/>
<path d="M1385 6701 c-190 -55 -345 -201 -464 -439 -174 -346 -206 -802 -86
-1215 90 -310 291 -599 542 -780 247 -177 599 -300 864 -301 104 -1 106 -1
190 41 255 128 503 488 624 908 62 215 83 479 49 596 -49 163 -206 383 -425
594 -136 130 -243 216 -408 326 -349 232 -674 332 -886 270z"/>
<path d="M5240 6030 c-406 -32 -892 -147 -1140 -271 -232 -116 -303 -248 -494
-920 -181 -636 -206 -686 -447 -879 -193 -155 -367 -252 -659 -370 -286 -115
-354 -163 -415 -293 -53 -111 -69 -212 -62 -391 4 -119 10 -172 31 -251 31
-117 99 -262 151 -322 52 -61 178 -141 356 -226 249 -119 304 -160 442 -332
95 -118 444 -470 572 -576 169 -140 263 -203 365 -243 307 -120 872 -193 1581
-203 620 -9 1061 28 1406 117 233 60 359 133 528 304 224 227 333 408 683
1136 82 172 123 222 264 321 406 288 668 739 729 1254 36 303 -30 663 -149
820 -73 96 -145 116 -357 96 -175 -16 -286 -35 -870 -151 -564 -112 -739 -140
-873 -140 -111 0 -143 13 -218 92 -110 115 -194 242 -464 703 -327 560 -429
696 -533 716 -71 13 -306 18 -427 9z"/>
</g>
</svg>
